<?xml version="1.0" encoding="UTF-8"?>
<!DOCTYPE svg PUBLIC "-//W3C//DTD SVG 1.1//EN" "http://www.w3.org/Graphics/SVG/1.1/DTD/svg11.dtd">
<!-- Creator: CorelDRAW -->
<svg xmlns="http://www.w3.org/2000/svg" xml:space="preserve" width="2.3073mm" height="2.3066mm" style="shape-rendering:geometricPrecision; text-rendering:geometricPrecision; image-rendering:optimizeQuality; fill-rule:evenodd; clip-rule:evenodd"
viewBox="0 0 0.87898 0.878714"
 xmlns:xlink="http://www.w3.org/1999/xlink">
 <defs>
  <style type="text/css">
   <![CDATA[
    .fil0 {fill:#33CC66;fill-rule:nonzero}
   ]]>
  </style>
 </defs>
 <g id="Layer_x0020_1">
  <metadata id="CorelCorpID_0Corel-Layer"/>
  <path class="fil0" d="M0.015924 0.0124954c0.0126097,-0.0113525 0.0312384,-0.0156954 0.0473529,-0.0100572 0.00971439,0.00327622 0.0181716,0.00929533 0.0268574,0.0146287 0.0315813,0.0205716 0.0620197,0.0429338 0.0920009,0.0657912 0.00327622,-0.0017524 0.00640007,-0.00377147 0.00940962,-0.00594292 0.0227812,-0.0162287 0.0519243,-0.0317718 0.077677,-0.042629 0.0144382,-0.00601911 0.0291813,-0.0112382 0.0441147,-0.015924 0.015924,-0.00430481 0.0319241,-0.00887628 0.0483053,-0.011162 0.0179049,-0.0035048 0.0361528,-0.00571434 0.0543625,-0.00636197 0.0223621,-0.00144763 0.0448767,-0.0008762 0.0671626,0.00152383 0.0169145,0.00152383 0.0338289,0.00403814 0.0503624,0.00800008 0.112954,0.0237336 0.214555,0.0951629 0.276422,0.192459 0.027467,0.0429338 0.0475433,0.0906295 0.0584006,0.140459 0.00415242,0.0184383 0.00746674,0.0371432 0.00857152,0.0560387 0.00255241,0.0235431 0.00270479,0.0474672 0.00060953,0.0710864 -0.000647626,0.0156573 -0.00232383,0.0316575 -0.00605721,0.0469719 -0.00133335,0.0144763 -0.00556196,0.0286098 -0.00940962,0.042629 -0.0155811,0.0575625 -0.0467814,0.115239 -0.0852199,0.160992 -0.046591,0.055391 -0.103468,0.0971058 -0.170287,0.124954 -0.0188573,0.00769532 -0.0382861,0.0139811 -0.0579435,0.0192383 -0.0171049,0.00377147 -0.0342861,0.00807627 -0.051772,0.00944772 -0.0325337,0.00495243 -0.0658293,0.00510481 -0.0985534,0.00190478 -0.0295622,-0.00228574 -0.0587816,-0.00853342 -0.0872009,-0.0169526l-0.000114287 -0.000533339c-0.136801,-0.039848 -0.249145,-0.152459 -0.290784,-0.288574 -0.00914295,-0.0293336 -0.015543,-0.0597339 -0.0178669,-0.0904009 -0.00335242,-0.0297527 -0.00182859,-0.059772 -0.00198097,-0.089639 -0.000342861,-0.0483815 0,-0.0970677 -3.80956e-005,-0.145449l3.80956e-005 -0.126744c-0.000228574,-0.0209145 -3.80956e-005,-0.0418671 -0.000114287,-0.0627816 -0.00140954,-0.0157716 0.00373337,-0.032267 0.0156954,-0.0429719zm0.0677721 0.0882295c-7.61913e-005,0.009562 -0.000228574,0.0190859 -0.000228574,0.0286479l-7.61913e-005 0.122401c0,0.0466291 -0.000228574,0.0932962 7.61913e-005,0.139925 0.000152383,0.026705 -0.000914295,0.0540196 0.00160002,0.0806104 0.00236193,0.0249145 0.00712388,0.0496767 0.0145144,0.0736389 0.0337527,0.109373 0.124611,0.201259 0.23486,0.233412l0.0205716 0.00598101c0.0166478,0.00400004 0.0336003,0.0069334 0.0506291,0.00841913 0.027086,0.00236193 0.0544387,0.00148573 0.0814104,-0.00163811 0.0140573,-0.00163811 0.0279622,-0.0043429 0.0416766,-0.00765722 0.0157716,-0.00384766 0.0312003,-0.00918105 0.0461719,-0.0153906 0.0544006,-0.0224002 0.10042,-0.0564958 0.138249,-0.101525 0.0308194,-0.0366099 0.0561911,-0.0833532 0.0687626,-0.129563 0.00312384,-0.0113906 0.00571434,-0.0229336 0.00765722,-0.0345527 0.00217145,-0.0127239 0.00419052,-0.0256765 0.00502862,-0.0385528 0.00129525,-0.019505 0.00110477,-0.0391242 -0.000495243,-0.0586292 -0.00125716,-0.0150859 -0.00361908,-0.0301717 -0.00689531,-0.0449909 -0.00891438,-0.0402671 -0.0251431,-0.0789722 -0.0473148,-0.113754 -0.0502862,-0.078858 -0.133411,-0.135659 -0.224459,-0.156078 -0.0133335,-0.00297146 -0.0268955,-0.00502862 -0.0404957,-0.00640007 -0.0181716,-0.00179049 -0.0364956,-0.00209526 -0.0547053,-0.00118096 -0.0149716,0.000723817 -0.0299051,0.00281908 -0.0446862,0.00529529 -0.0131049,0.00217145 -0.0260574,0.0052572 -0.0387814,0.00899057 -0.0120382,0.0035048 -0.0238098,0.00792389 -0.0353908,0.012762 -0.0209907,0.00880009 -0.0432766,0.0205716 -0.0617911,0.0337908 -0.0102477,0.00731436 -0.00369528,0.0034667 -0.016343,0.0102858l-0.0384766 0.0206859 -0.0347813 -0.0264384c-0.0217526,-0.0165335 -0.0436195,-0.0331432 -0.0662864,-0.0484957zm0.344461 0.541606c0.0117335,-0.00860961 0.0212574,-0.0196954 0.0316956,-0.0297527 0.0738674,-0.0738674 0.147354,-0.148192 0.221678,-0.221602 0.0279622,-0.0257526 0.037448,-0.0596959 0.0241907,-0.0960391 -0.00952391,-0.0211812 -0.027086,-0.038248 -0.0488005,-0.0465529 -0.0323813,-0.0105525 -0.0648769,-0.00297146 -0.0887628,0.0212574 -0.0612578,0.0610673 -0.123316,0.126363 -0.185907,0.185754 -0.0242288,-0.0240002 -0.0482672,-0.0481529 -0.0723055,-0.0722674 -0.0126858,-0.0134097 -0.0301336,-0.0217145 -0.0483053,-0.0244193 -0.0168002,-0.00194288 -0.0337908,0.00110477 -0.0491053,0.00826675 -0.0139049,0.0078858 -0.0261336,0.0190097 -0.0340956,0.033067 -0.0104001,0.0180192 -0.0128001,0.0397718 -0.0087239,0.0600387 0.00392385,0.0146668 0.011162,0.0286098 0.0220574,0.0393528 0.0444195,0.0443433 0.0887628,0.0887628 0.133182,0.133144 0.0143621,0.0140954 0.0340575,0.0220193 0.0540196,0.0233145 0.0172954,0.000190478 0.0344765,-0.0043429 0.0491815,-0.013562z"/>
 </g>
</svg>
